<?xml version="1.0" standalone="no"?>
<!DOCTYPE svg PUBLIC "-//W3C//DTD SVG 20010904//EN"
 "http://www.w3.org/TR/2001/REC-SVG-20010904/DTD/svg10.dtd">
<svg version="1.0" xmlns="http://www.w3.org/2000/svg"
 width="160pt" height="160pt" viewBox="0 0 80.000000 80.000000"
 preserveAspectRatio="xMidYMid meet">

<g transform="translate(0.000000,80.000000) scale(0.100000,-0.100000)"
fill="#c0001a" stroke="none">
<path d="M275 706 c-34 -15 -49 -37 -60 -84 -5 -27 -11 -32 -35 -32 -18 0 -39
-11 -59 -31 -38 -38 -42 -92 -10 -133 l20 -26 -20 -26 c-33 -42 -28 -99 10
-135 18 -17 42 -29 58 -29 23 0 28 -6 39 -45 13 -49 40 -73 94 -81 27 -5 41
-1 63 18 l29 25 34 -23 c42 -29 67 -30 109 -4 24 14 35 31 44 65 10 41 14 45
41 45 72 0 117 113 67 166 l-21 23 21 27 c46 59 12 145 -63 160 -28 5 -34 11
-44 48 -19 73 -93 104 -153 63 l-34 -23 -34 23 c-39 26 -54 28 -96 9z m249
-27 c55 -25 53 -111 -2 -122 -41 -8 -53 -44 -22 -69 27 -22 60 -8 60 26 0 23
33 46 67 46 29 0 63 -41 63 -75 0 -55 -27 -69 -139 -73 -128 -5 -131 -3 -130
121 1 106 6 124 40 143 30 17 32 17 63 3z m-149 -23 c12 -18 15 -47 13 -127
l-3 -104 -100 -3 c-55 -2 -110 0 -121 2 -26 7 -48 56 -39 86 9 29 48 52 81 48
24 -3 32 -11 54 -58 4 -8 20 -15 36 -15 24 0 30 5 32 27 2 19 -3 30 -18 38
-11 6 -25 8 -30 5 -12 -8 -30 28 -30 61 0 40 26 64 71 64 30 0 42 -6 54 -24z
m13 -393 c3 -110 2 -111 -24 -132 -34 -27 -54 -26 -88 0 -22 17 -26 28 -24 57
2 21 10 38 21 43 9 5 25 13 35 18 9 4 18 20 20 34 3 21 -2 28 -22 33 -31 7
-53 -8 -58 -39 -7 -47 -95 -48 -116 -2 -17 37 -15 56 10 82 21 22 28 23 133
21 l110 -3 3 -112z m282 97 c28 -28 27 -84 -2 -104 -38 -27 -116 -12 -104 19
7 18 -20 45 -44 45 -23 0 -42 -32 -34 -54 3 -9 20 -20 37 -24 59 -15 59 -100
0 -123 -39 -14 -70 -3 -88 31 -19 37 -22 216 -2 223 6 3 58 6 115 6 89 1 104
-1 122 -19z"/>
</g>
</svg>
